<svg data-v-0dd9719b="" version="1.0" xmlns="http://www.w3.org/2000/svg" xmlns:xlink="http://www.w3.org/1999/xlink" width="100%" height="100%" viewBox="0 0 340.000000 250.000000" preserveAspectRatio="xMidYMid meet" color-interpolation-filters="sRGB" style="margin: auto;"> <rect data-v-0dd9719b="" x="0" y="0" width="100%" height="100%" fill="#fff" fill-opacity="1" class="background"></rect> <rect data-v-0dd9719b="" x="0" y="0" width="100%" height="100%" fill="url(#watermark)" fill-opacity="1" class="watermarklayer"></rect> <g data-v-0dd9719b="" fill="#f20" class="icon-text-wrapper icon-svg-group iconsvg" transform="translate(48.11000061035156,100.43874931335449)"><g class="iconsvg-imagesvg" transform="translate(0,3.484508514404297)"><g><rect fill="#f20" fill-opacity="0" stroke-width="2" x="0" y="0" width="60" height="42.15348082367901" class="image-rect"></rect> <svg x="0" y="0" width="60" height="42.15348082367901" filtersec="colorsb3482442194" class="image-svg-svg primary" style="overflow: visible;"><svg xmlns="http://www.w3.org/2000/svg" viewBox="0 0.0016345977783203125 416.86004638671875 292.86834716796875"><defs><linearGradient id="ab2834338-9bb8-44f8-bc33-d5462024a9f5" y1="146.44" x2="564.01" y2="146.44" gradientUnits="userSpaceOnUse"><stop offset="0" stop-color="#f20"></stop><stop offset=".53" stop-color="#ff7100"></stop><stop offset="1" stop-color="#f7e437"></stop></linearGradient></defs><g><path d="M368.26 80.05c-26.78-13.19-67.37-18.91-89.46-7.94 2.55-3.95 12.5-11 32.7-10.58 27.9.56 37.07-8.16 39-10.1 0 0-22.12 4.33-47.61-11.54-17.3-10.77-44.57-19.54-69-17.45-11.58 1-22.53 4.4-31.49 11.2A35.42 35.42 0 0 1 218 14.51a41.6 41.6 0 0 1 18.44-5.4C129.56-23.36 0 32.08 0 157.89a156.54 156.54 0 0 0 68.41 129.18l45.3-132.13c7.06-20.28 23.8-32.79 54.43-32.79a78 78 0 0 1 21.74 3.09 31.18 31.18 0 0 0 8.69 1.24h24.23a43.27 43.27 0 0 1 40.62 58.18s-4.81-15-21.16-15.51c0 0-44.85-4.09-38.12 22.33l30.5 101.39a156.9 156.9 0 0 0 47.18-42.28 47.29 47.29 0 0 0-26.09 0s-.64-9 24.85-11.38a51.07 51.07 0 0 0 10-1.86c15.61-4.74 17.08-16.32 30.29-28.12 0 0 9.62-9.38 20-5.77 0 0-12.67-15.23-36.79-13.87-.56 0 8.67-.62 25-6.65 20.84-7.7 34.15-15.55 48.58-37.68s27.17-46.17 39.2-48.1c-.02-.03-15.86-.99-48.6-17.11z" fill="url(#ab2834338-9bb8-44f8-bc33-d5462024a9f5)"></path></g></svg></svg> <!----></g></g> <g transform="translate(67,0)"><g data-gra="path-name" fill-rule="" class="tp-name iconsvg-namesvg" transform="translate(0,0)"><g transform="scale(1)"><g><path d="M10.02-20.09L10.02-22.06 2.12-22.06 2.12-26.41 10.02-26.41 10.02-29.12 14.67-28.94 14.67-26.41 21.48-26.41 21.48-29.12 26.12-28.94 26.12-26.41 33.91-26.41 33.91-22.06 26.12-22.06 26.12-19.98 21.48-19.98 21.48-22.06 14.67-22.06 14.67-20.09 10.02-20.09ZM34.94-7.5L32.74-3.4Q31.72-4.39 30.38-5.52 29.05-6.66 27.73-7.72L27.73-7.72Q27.59-5.82 27.48-4.23 27.37-2.63 27.29-1.72L27.29-1.72Q27.18-0.29 26.8 0.62 26.41 1.54 25.66 2.09 24.91 2.63 23.8 2.91 22.68 3.18 21.15 3.29L21.15 3.29 18 3.51 16.68-0.77 19.87-0.99Q20.78-1.06 21.35-1.15 21.91-1.24 22.24-1.5 22.57-1.76 22.72-2.25 22.87-2.74 22.94-3.59L22.94-3.59Q22.98-3.99 23.05-4.76 23.12-5.52 23.2-6.49 23.27-7.46 23.34-8.49 23.41-9.51 23.47-10.45 23.52-11.38 23.58-12.09 23.63-12.8 23.63-13.1L23.63-13.1 17.38-13.1Q17.12-9.7 16.39-7.15 15.66-4.61 14.27-2.56 12.88-0.51 10.77 1.24 8.67 3 5.71 4.79L5.71 4.79 2.63 1.06Q5.3-0.4 7.17-1.85 9.04-3.29 10.23-4.92 11.41-6.55 12.04-8.52 12.66-10.5 12.88-13.1L12.88-13.1 4.06-13.1 4.06-17.38 13.1-17.38Q13.13-18.04 13.13-18.6 13.13-19.17 13.13-19.54L13.13-19.54 17.63-19.35Q17.63-18.88 17.62-18.38 17.6-17.89 17.56-17.38L17.56-17.38 28.32-17.38Q28.28-16.65 28.21-15.37 28.13-14.09 28.06-12.51L28.06-12.51Q28.83-12.04 29.8-11.36 30.77-10.68 31.72-9.97 32.67-9.26 33.53-8.6 34.39-7.94 34.94-7.5L34.94-7.5ZM7.79-12.91L11.23-10.1Q9.84-8.12 8.27-6.22 6.7-4.32 5.23-3.07L5.23-3.07 1.94-5.85Q2.63-6.48 3.42-7.32 4.21-8.16 4.98-9.09 5.74-10.02 6.46-11.01 7.17-12 7.79-12.91L7.79-12.91ZM63.59-28.76L67.98-28.57 67.98 2.96 63.59 2.96 63.59-10.9 61.02-9.44Q60.44-11.05 59.69-12.93 58.94-14.82 58.13-16.57L58.13-16.57 58.13 2.3 53.78 2.3 53.78-10.72 51.44-9.37Q50.93-10.9 50.23-12.6 49.54-14.3 48.8-15.95L48.8-15.95Q48.77-12.04 48.46-9.16 48.15-6.29 47.38-4.01 46.61-1.72 45.31 0.2 44.01 2.12 42.04 4.13L42.04 4.13 37.98 1.32Q39.95-0.62 41.21-2.34 42.48-4.06 43.19-6.09 43.9-8.12 44.18-10.74 44.45-13.35 44.45-17.12L44.45-17.12 44.45-28.76 48.8-28.57 48.8-19.83 50.89-20.89Q51.59-19.61 52.35-17.95 53.12-16.28 53.78-14.6L53.78-14.6 53.78-27.88 58.13-27.7 58.13-19.72 60.44-20.89Q61.17-19.5 62.01-17.71 62.85-15.91 63.59-14.09L63.59-14.09 63.59-28.76ZM40.35-20.89L44.2-19.98Q43.98-18.84 43.61-17.36 43.24-15.88 42.8-14.34 42.37-12.8 41.89-11.34 41.41-9.88 41.01-8.82L41.01-8.82 37.32-10.24Q37.79-11.38 38.25-12.71 38.71-14.05 39.11-15.44 39.51-16.83 39.84-18.24 40.17-19.65 40.35-20.89L40.35-20.89ZM100.13-3.91L100.13-3.91Q101.45-3 103.04-2.16 104.63-1.32 106.57-0.55L106.57-0.55 104.78 3.22Q101.3 1.72 98.71-0.09 96.11-1.9 94.21-4.17L94.21-4.17 94.21-0.73Q94.21 0.4 94.02 1.15 93.84 1.9 93.4 2.4 92.96 2.89 92.23 3.15 91.5 3.4 90.4 3.51L90.4 3.51 87.84 3.77 86.56-0.04 88.83-0.33Q89.71-0.44 90-0.88 90.29-1.32 90.29-2.16L90.29-2.16 90.29-2.89Q87.88-1.46 85.52-0.18 83.16 1.1 80.27 2.52L80.27 2.52 78.62-0.18Q78.26 0.62 77.84 1.45 77.41 2.27 76.9 3.15L76.9 3.15 72.73 1.13Q73.79-0.8 74.52-2.41 75.26-4.02 75.71-5.84 76.17-7.65 76.37-9.95 76.57-12.26 76.57-15.59L76.57-15.59 76.57-26.78 88.9-26.78 88.35-29.16 93.22-29.38 93.77-26.78 104.85-26.78 104.85-22.87 94.21-22.87 94.21-21.33 103.13-21.33 103.13-16.83 105.55-16.83 105.55-13.61 103.13-13.61 103.13-9.07 102.55-9.07 104.2-6.95Q103.39-6.33 102.31-5.52 101.23-4.72 100.13-3.91ZM90.29-22.87L80.85-22.87 80.85-16.83 90.29-16.83 90.29-18.04 82.39-18.04 82.39-21.33 90.29-21.33 90.29-22.87ZM99.15-18.04L94.21-18.04 94.21-16.83 99.15-16.83 99.15-18.04ZM78.95-0.99L78.95-0.99Q81.84-2.3 84.95-3.99L84.95-3.99Q84.55-4.43 84.02-4.9 83.49-5.38 82.94-5.85 82.39-6.33 81.86-6.77 81.33-7.21 80.89-7.5L80.89-7.5 82.32-9.07 82.02-9.07 82.02-12.4 90.29-12.4 90.29-13.61 80.85-13.61Q80.85-11.41 80.74-9.64 80.63-7.87 80.4-6.37 80.16-4.87 79.81-3.55 79.46-2.23 78.95-0.99ZM99.15-12.4L99.15-13.61 94.21-13.61 94.21-12.4 99.15-12.4ZM90.04-6.91L90.29-6.51 90.29-9.07 84.73-9.07Q85.5-8.45 86.3-7.74 87.11-7.02 87.66-6.44L87.66-6.44 86.05-4.57Q87.07-5.16 88.08-5.73 89.09-6.29 90.04-6.91L90.04-6.91ZM97.02-6.55L97.02-6.55Q97.94-7.17 98.85-7.81 99.77-8.45 100.61-9.07L100.61-9.07 95.09-9.07Q95.49-8.41 95.96-7.79 96.44-7.17 97.02-6.55ZM121.39-12.37L122.71-13.72Q123.29-13.17 124.02-12.48 124.76-11.78 125.51-11.03 126.26-10.28 126.97-9.53 127.68-8.78 128.23-8.12L128.23-8.12 125.23-4.61Q124.46-5.56 123.44-6.73 122.41-7.9 121.39-8.96L121.39-8.96 121.39 3.62 117 3.62 117-8.23Q116.01-6.7 114.8-5.1 113.6-3.51 112.17-1.94L112.17-1.94 108.77-5.38Q110.78-7.35 112.68-9.82 114.59-12.29 116.16-15.18L116.16-15.18 110.82-15.18 110.82-19.61 117-19.61 117-22.76Q115.54-22.57 114.18-22.39 112.83-22.21 111.7-22.06L111.7-22.06 111.15-26.41Q112.83-26.56 114.8-26.8 116.78-27.04 118.77-27.35 120.77-27.66 122.67-28.01 124.57-28.35 126.18-28.76L126.18-28.76 126.95-24.48Q125.78-24.22 124.35-23.96 122.93-23.71 121.39-23.45L121.39-23.45 121.39-19.61 127.35-19.61 127.35-15.18 121.39-15.18 121.39-12.37ZM136.32-28.65L140.85-28.46 140.85-1.65Q140.85-0.29 140.6 0.64 140.34 1.57 139.79 2.2 139.24 2.82 138.37 3.16 137.49 3.51 136.21 3.66L136.21 3.66 132.99 4.06 131.52-0.44 134.45-0.84Q135.59-1.02 135.95-1.61 136.32-2.2 136.32-3.26L136.32-3.26 136.32-28.65ZM132.91-25.46L132.91-4.46 128.45-4.46 128.45-25.65 132.91-25.46ZM165.29-1.57L165.29-1.57Q166.87-1.57 168.62-1.59 170.38-1.61 172.15-1.65 173.93-1.68 175.61-1.76 177.29-1.83 178.72-1.9L178.72-1.9 177.73 2.56Q176.56 2.6 174.91 2.65 173.27 2.71 171.57 2.73 169.87 2.74 168.35 2.76 166.83 2.78 165.99 2.74L165.99 2.74Q163.46 2.67 161.56 2.54 159.66 2.41 158.07 2.03 156.48 1.65 155.05 0.91 153.62 0.18 152.05-1.13L152.05-1.13Q151.13-0.22 150.2 0.84 149.27 1.9 147.99 3.04L147.99 3.04 145.13-0.4Q146.71-1.61 147.93-2.74 149.16-3.88 150.07-4.87L150.07-4.87 150.11-13.79 146.49-13.79 146.49-18.26 154.46-18.26 154.46-4.28Q155.3-3.77 156.05-3.35 156.8-2.93 157.65-2.63L157.65-2.63 154.98-6.11Q157.28-7.57 158.87-8.95 160.46-10.32 161.47-11.78 162.48-13.24 162.99-14.85 163.5-16.46 163.68-18.44L163.68-18.44 156.73-18.44 156.73-22.98 163.83-22.98 163.83-29.09 168.62-28.9Q168.62-28.46 168.62-27.77 168.62-27.07 168.62-26.27 168.62-25.46 168.6-24.6 168.59-23.74 168.59-22.98L168.59-22.98 176.01-22.98 176.01-18.44 168.44-18.44Q168.33-16.61 168-15.04L168-15.04Q170.3-12.84 172.59-10.66 174.88-8.49 176.96-5.96L176.96-5.96 173.67-2.16Q172.9-3.26 172.01-4.37 171.11-5.49 170.18-6.59 169.24-7.68 168.29-8.71 167.34-9.73 166.46-10.61L166.46-10.61Q165.29-8.38 163.35-6.42 161.41-4.46 158.45-2.38L158.45-2.38Q159.84-1.94 161.47-1.77 163.1-1.61 165.29-1.57ZM155.67-22.5L152.3-19.06Q151.83-19.83 151.23-20.73 150.62-21.62 149.95-22.52 149.27-23.41 148.55-24.29 147.84-25.17 147.15-25.87L147.15-25.87 150.48-28.68Q151.13-28.1 151.9-27.31 152.67-26.52 153.38-25.66 154.1-24.8 154.7-23.98 155.3-23.16 155.67-22.5L155.67-22.5Z" transform="translate(-1.940000057220459, 29.3799991607666)"></path></g> <!----> <!----> <!----> <!----> <!----> <!----> <!----></g></g> <g data-gra="path-slogan" fill-rule="" class="tp-slogan iconsvg-slogansvg" fill="#f20" transform="translate(5,40.16999816894531)"><rect x="0" height="1" y="3.9750003814697266" width="23.624176025390625"></rect> <rect height="1" y="3.9750003814697266" width="23.624176025390625" x="143.15582275390625"></rect> <g transform="translate(26.624176025390625,0)"><g transform="scale(1)"><path d="M7.17-6.09L7.17-6.09L6.09-6.09Q6-7.73 3.94-7.83L3.94-7.83Q2.02-7.78 2.02-6.33L2.02-6.33Q2.02-5.39 3.05-5.25L3.05-5.25L5.48-4.69Q7.41-4.22 7.41-2.34L7.41-2.34Q7.36 0.05 4.03 0.14L4.03 0.14Q2.20 0.14 1.45-0.61L1.45-0.61Q0.52-1.31 0.56-2.77L0.56-2.77L1.69-2.77Q1.73-0.80 4.03-0.75L4.03-0.75Q6.28-0.80 6.33-2.20L6.33-2.20Q6.52-3.38 4.45-3.75L4.45-3.75L2.67-4.13Q0.84-4.64 0.84-6.19L0.84-6.19Q0.98-8.72 3.84-8.81L3.84-8.81Q7.08-8.81 7.17-6.09ZM14.53-3.19L14.53-8.58L15.70-8.58L15.70-3.05Q15.56 0.05 12.19 0.14L12.19 0.14Q9.05 0.05 8.91-2.86L8.91-2.86L8.91-8.58L10.08-8.58L10.08-3.19Q10.13-0.84 12.23-0.80L12.23-0.80Q14.53-0.84 14.53-3.19L14.53-3.19ZM18.33-1.03L23.63-1.03L23.63 0L16.88 0L16.88-0.94L22.13-7.59L17.25-7.59L17.25-8.58L23.63-8.58L23.63-7.59L18.33-1.03ZM25.92-5.06L30.42-5.06L30.42-8.58L31.59-8.58L31.59 0L30.42 0L30.42-3.98L25.92-3.98L25.92 0L24.75 0L24.75-8.58L25.92-8.58L25.92-5.06ZM40.17-4.27L40.17-4.27Q39.98-7.64 37.17-7.83L37.17-7.83Q34.31-7.69 34.17-4.27L34.17-4.27Q34.31-0.94 37.17-0.80L37.17-0.80Q39.98-0.98 40.17-4.27ZM41.34-4.27L41.34-4.27Q41.06 0 37.17 0.14L37.17 0.14Q33.23 0 32.95-4.27L32.95-4.27Q33.19-8.72 37.17-8.81L37.17-8.81Q41.06-8.67 41.34-4.27ZM48.38-3.19L48.38-8.58L49.55-8.58L49.55-3.05Q49.41 0.05 46.03 0.14L46.03 0.14Q42.89 0.05 42.75-2.86L42.75-2.86L42.75-8.58L43.92-8.58L43.92-3.19Q43.97-0.84 46.08-0.80L46.08-0.80Q48.38-0.84 48.38-3.19L48.38-3.19ZM57.19-4.31L55.83-3.05L55.83 0L54.66 0L54.66-8.58L55.83-8.58L55.83-4.41L60-8.58L61.64-8.58L58.03-5.11L61.73 0L60.19 0L57.19-4.31ZM68.30 0L67.45-2.48L63.98-2.48L63.09 0L61.92 0L65.16-8.58L66.47-8.58L69.56 0L68.30 0ZM65.72-7.31L64.36-3.52L67.03-3.52L65.77-7.31L65.72-7.31ZM72-8.58L76.31-1.64L76.31-8.58L77.44-8.58L77.44 0L76.13 0L71.77-6.94L71.72-6.94L71.72 0L70.59 0L70.59-8.58L72-8.58ZM85.64-3.61L83.02-3.61L83.02-4.59L86.77-4.59L86.77 0L86.02 0L85.73-1.08Q84.75 0.09 82.92 0.14L82.92 0.14Q81.19 0.14 80.25-0.75L80.25-0.75Q78.84-2.06 78.89-4.36L78.89-4.36Q79.22-8.63 82.97-8.81L82.97-8.81Q86.16-8.63 86.63-6L86.63-6L85.50-6Q85.03-7.78 82.92-7.83L82.92-7.83Q80.25-7.64 80.11-4.31L80.11-4.31Q80.11-0.75 82.97-0.75L82.97-0.75Q84-0.75 84.75-1.31L84.75-1.31Q85.69-2.06 85.64-3.61L85.64-3.61ZM88.55-8.58L89.72-8.58L89.72-1.03L94.08-1.03L94.08 0L88.55 0L88.55-8.58ZM95.39-8.58L96.56-8.58L96.56 0L95.39 0L95.39-8.58ZM102.05 0L98.58 0L98.58-8.58L102.09-8.58Q105.56-8.39 105.70-4.41L105.70-4.41Q105.52-0.09 102.05 0L102.05 0ZM101.91-7.64L99.75-7.64L99.75-0.98L102-0.98Q104.44-1.13 104.53-4.31L104.53-4.31Q104.48-7.55 101.91-7.64L101.91-7.64ZM112.83 0L111.98-2.48L108.52-2.48L107.63 0L106.45 0L109.69-8.58L111-8.58L114.09 0L112.83 0ZM110.25-7.31L108.89-3.52L111.56-3.52L110.30-7.31L110.25-7.31Z" transform="translate(-0.5602678571428572, 8.8125)"></path></g></g></g></g></g><defs v-gra="od"></defs></svg>